<?xml version="1.0" standalone="no"?><!DOCTYPE svg PUBLIC "-//W3C//DTD SVG 1.1//EN" "http://www.w3.org/Graphics/SVG/1.1/DTD/svg11.dtd"><svg t="1539767487552" class="icon" style="" viewBox="0 0 1024 1024" version="1.1" xmlns="http://www.w3.org/2000/svg" p-id="18501" xmlns:xlink="http://www.w3.org/1999/xlink" width="200" height="200"><defs><style type="text/css"></style></defs><path d="M512 0C230.4 0 0 230.4 0 512s230.4 512 512 512 512-230.4 512-512S793.6 0 512 0z m192 584.533333c-10.666667 10.666667-29.866667 10.666667-40.533333 0l-121.6-121.6v337.066667c0 14.933333-12.8 27.733333-27.733334 27.733333-14.933333 0-27.733333-12.8-27.733333-27.733333V460.8L362.666667 584.533333c-10.666667 10.666667-27.733333 10.666667-40.533334 0-10.666667-10.666667-10.666667-27.733333 0-40.533333l192-192 189.866667 189.866667c10.666667 12.8 10.666667 32 0 42.666666z m14.933333-273.066666c0 14.933333-12.8 27.733333-27.733333 27.733333H332.8c-14.933333 0-27.733333-12.8-27.733333-27.733333 0-14.933333 12.8-27.733333 27.733333-27.733334h360.533333c12.8-2.133333 25.6 10.666667 25.6 27.733334z" p-id="18502"></path></svg>