<?xml version="1.0" standalone="no"?><!DOCTYPE svg PUBLIC "-//W3C//DTD SVG 1.1//EN" "http://www.w3.org/Graphics/SVG/1.1/DTD/svg11.dtd"><svg t="1539761908174" class="icon" style="" viewBox="0 0 1564 1024" version="1.1" xmlns="http://www.w3.org/2000/svg" p-id="13964" xmlns:xlink="http://www.w3.org/1999/xlink" width="305.46875" height="200"><defs><style type="text/css"></style></defs><path d="M373.948044 965.446402c0 31.799343 184.222156 58.553598 411.25112 58.553598s412.474171-25.684085 412.474171-58.553598c0-31.799343-184.222156-58.553598-412.474171-58.553598s-411.25112 26.907136-411.25112 58.553598z" fill="#B2B2B2" p-id="13965"></path><path d="M1383.88295 590.886832c0 11.466109 9.325769 20.791878 20.791878 20.791878s20.791878-9.325769 20.791878-20.791878-9.325769-20.791878-20.791878-20.791878c-12.230517-1.223052-20.791878 8.561362-20.791878 20.791878zM0 384.649746c0.152881 8.714243 7.185428 15.74679 15.899672 15.899672 8.714243 0 15.899672-7.032547 15.899671-15.899672 0-8.714243-7.032547-15.899672-15.899671-15.899671-8.714243 0.152881-15.74679 7.185428-15.899672 15.899671zM1320.437145 459.103016c0-19.568827-17.122723-36.538668-36.538668-36.538668s-36.538668 17.122723-36.538668 36.538668 17.122723 36.538668 36.538668 36.538668 36.538668-17.122723 36.538668-36.538668z m-95.245147 0c0-31.799343 26.907136-58.553598 58.553598-58.553598s58.553598 26.907136 58.553598 58.553598-26.907136 58.553598-58.553598 58.553598-58.553598-26.907136-58.553598-58.553598zM1361.86802 57.636309c0-19.568827-17.122723-36.538668-36.538668-36.538668S1288.790684 38.220364 1288.790684 57.636309s17.122723 36.538668 36.538668 36.538669c20.180352-0.152881 36.385787-16.358316 36.538668-36.538669z m-52.438339 0c0-8.714243 7.185428-15.899672 15.899671-15.899671s15.899672 7.185428 15.899672 15.899671-7.185428 15.899672-15.899672 15.899672c-8.714243-0.152881-15.74679-7.185428-15.899671-15.899672z m200.121827 267.236787h-18.345775c-6.726784 0-12.230517 5.503732-12.230517 12.230517s5.503732 12.230517 12.230517 12.230517h18.345775v18.345774c0 6.726784 5.503732 12.230517 12.230516 12.230517 6.421021 0.458644 11.771872-4.433562 12.230517-10.854583v-19.721708h18.345775c6.726784 0 12.230517-5.503732 12.230516-12.230517s-5.503732-12.230517-12.230516-12.230517h-18.345775v-18.345774c0-6.726784-5.503732-12.230517-12.230517-12.230517s-12.230517 5.503732-12.230516 12.230517v18.345774zM222.136757 695.763511h-31.799343c-5.962377 0-11.007465 4.739325-11.007465 10.854584v0.152881c0 7.33831 3.669155 11.007465 11.007465 11.007465h31.799343v31.799343c0 5.962377 4.739325 11.007465 10.854584 11.007465h0.152881c6.115258 0 11.007465-3.669155 11.007465-11.007465v-31.799343h31.799343c5.962377 0 11.007465-4.739325 11.007465-10.854583v-0.152882c0-7.33831-3.669155-11.007465-11.007465-11.007465h-31.799343v-31.799343c0-5.962377-4.739325-11.007465-10.854583-11.007465h-0.152882c-6.115258 0-11.007465 3.669155-11.007465 11.007465v31.799343z" fill="#B2B2B2" p-id="13966"></path><path d="M424.704688 832.439534c-24.15527 0.152881-43.724097-19.415945-43.876978-43.418334V223.51269c-0.152881-24.15527 19.415945-43.724097 43.418334-43.876978h185.903851c110.991938 0 251.337116 123.222454 358.81278 123.222455h168.322485c24.15527-0.152881 43.724097 19.415945 43.876978 43.418333v443.356226c0.152881 24.15527-19.415945 43.724097-43.418334 43.876978h-0.458644l-712.580472-1.07017z m184.222156-632.011944H446.719618c-24.15527-0.152881-43.724097 19.415945-43.876978 43.418334v56.566139H877.539564c-89.12989-35.315617-188.044192-99.984473-268.61272-99.984473z m507.719319 123.222455h-713.956405v442.897581c-0.152881 24.15527 19.415945 43.724097 43.418334 43.876978h669.162138c24.15527 0.152881 43.724097-19.415945 43.876978-43.418333V368.750075c1.681696-23.237981-15.74679-43.265452-38.83189-44.947149-1.223052-0.152881-2.446103-0.152881-3.669155-0.152881z" fill="#B2B2B2" p-id="13967"></path><path d="M977.524037 47.851896c-5.045088-3.669155-12.230517-2.598985-15.899672 2.446103-3.669155 5.045088-2.598985 12.230517 2.446104 15.899672 13.453568 9.784413 24.461033 18.345775 35.315616 26.907136 4.892207 3.669155 12.230517 3.669155 15.899672-2.446103 3.669155-4.892207 3.669155-12.230517-2.446103-15.899671-12.230517-8.561362-21.862048-17.122723-35.315617-26.907137z m-30.576291 90.352941L937.163332 95.550911c-1.07017-6.115258-7.032547-10.090176-13.147805-9.020006-6.115258 1.07017-10.090176 7.032547-9.020006 13.147805 0 0.305763 0.152881 0.458644 0.152882 0.764407l9.937294 42.501045c1.375933 6.115258 7.33831 9.937295 13.453568 8.561362 5.962377-1.223052 9.631532-6.115258 8.408481-13.300687z m53.661391-4.892206L956.732159 140.650941c-6.115258 1.223052-11.007465 7.33831-9.784413 12.230516s6.115258 11.007465 12.230516 9.784413l43.876978-7.491191c6.115258-1.223052 11.007465-7.33831 9.784414-12.230517-1.223052-7.185428-6.115258-12.077635-12.230517-9.631531z m-77.969543-58.70648c6.115258-1.375933 9.937295-7.33831 8.561362-13.453568l-4.892207-24.461033c3.669155 2.446103 6.115258 4.892207 11.007465 7.33831 5.045088 3.669155 12.230517 2.598985 15.899671-2.446104 3.669155-5.045088 2.598985-12.230517-2.446103-15.899671-17.122723-12.230517-23.237981-17.122723-31.799343-23.237982L915.301284 0h-3.669155l-6.115258 1.223052c-6.115258 1.223052-11.007465 6.115258-9.784414 12.230516 0 3.669155 2.446103 6.115258 4.892207 8.561362l9.784413 42.653926c0 8.714243 6.115258 11.160346 12.230517 9.937295z m-482.035234 87.906838c6.115258-1.223052 11.007465-6.115258 9.784413-12.230517l-3.669155-42.653926v-1.223052c0-6.115258-4.892207-11.007465-12.230517-11.007465s-11.007465 4.892207-11.007465 12.230517V110.074649l3.669155 42.653927c1.223052 7.33831 7.33831 11.007465 13.453569 9.784413z m646.688563 80.568528c-1.223052-6.115258-6.115258-11.007465-12.230516-9.784413s-11.007465 6.115258-9.784414 12.230516l3.669155 43.876978c1.223052 6.115258 6.115258 11.007465 12.230517 9.784414s11.007465-6.115258 9.784413-12.230517l-3.669155-43.876978z m-13.453568-20.791878c6.115258-1.223052 11.007465-6.115258 9.784413-12.230517l-3.669155-43.876978c-1.223052-6.115258-6.115258-11.007465-12.230516-9.784413s-11.007465 6.115258-9.784414 12.230516l3.669155 43.876978c1.375933 6.115258 7.33831 11.007465 12.230517 9.784414zM1064.054942 144.167214h3.669155c6.115258-1.223052 11.007465-6.115258 9.784413-12.230516v-6.115259l-3.669155-3.669155c-11.007465-8.561362-20.791878-18.345775-33.022395-28.130188-4.892207-3.669155-12.230517-3.669155-15.899671 2.446103-3.669155 4.892207-3.669155 12.230517 2.446103 15.899672l15.899672 12.230517-9.784414 1.223051c-6.115258 1.223052-11.007465 7.33831-9.784413 12.230517 1.223052 6.115258 6.115258 11.007465 12.230517 9.784413l28.130188-3.669155zM871.271424 6.26814l-43.876978 3.669155c-6.115258 1.223052-11.007465 6.115258-9.784413 12.230516s6.115258 11.007465 12.230516 9.784414l43.876979-3.669155c6.115258-1.223052 11.007465-6.115258 9.784413-12.230517 0-4.892207-6.115258-9.784413-12.230517-9.784413zM450.388773 252.86593c-6.115258 1.223052-11.007465 6.115258-9.784413 12.230517l3.669154 43.876978c1.223052 6.115258 6.115258 11.007465 12.230517 9.784413s11.007465-6.115258 9.784413-12.230516l-3.669155-43.876979c-1.375933-7.33831-6.115258-11.007465-12.230516-9.784413z m32.869513-205.014034l-9.784413 1.223052c-14.370857 1.07017-27.671544 8.255599-36.538668 19.568826-3.669155 4.892207-3.669155 12.230517 1.223051 15.899672s12.230517 3.669155 15.899672-1.223052c4.892207-6.115258 13.453568-12.230517 22.01493-12.230516l9.784413-1.223052c6.115258-1.223052 11.007465-6.115258 9.784413-12.230517-0.152881-6.115258-5.045088-11.007465-12.383398-9.784413zM794.524933 14.829501L750.647955 18.498656c-6.115258 1.223052-11.007465 6.115258-9.784414 12.230517s6.115258 11.007465 12.230517 9.784413l43.876978-3.669155c6.115258-1.223052 11.007465-6.115258 9.784413-12.230516-1.375933-4.892207-6.26814-11.007465-12.230516-9.784414zM449.165721 240.635414c6.115258-1.223052 11.007465-6.115258 9.784413-12.230517l-3.669155-43.876978c-1.223052-6.115258-6.115258-11.007465-12.230516-9.784413s-11.007465 6.115258-9.784413 12.230516l3.669155 43.876978c0.152881 5.656614 5.045088 10.243058 10.701702 9.937295 0.458644 0 1.07017 0 1.528814-0.152881z m112.21499-201.34488l-43.876979 3.669155c-6.115258 1.223052-11.007465 6.115258-9.784413 12.230517s6.115258 11.007465 12.230517 9.784413l43.876978-3.669155c6.115258-1.223052 11.007465-6.115258 9.784413-12.230516-1.07017-5.809495-6.26814-10.090176-12.230516-9.784414z m155.021797-15.899671l-45.10003 3.669155c-6.115258 1.223052-11.007465 6.115258-9.784413 12.230516s6.115258 11.007465 12.230517 9.784414l43.876978-3.669155c6.115258-1.223052 11.007465-6.115258 9.784413-12.230517s-4.892207-11.007465-11.007465-9.784413z m-76.899373 8.561362l-43.876978 3.669155c-6.115258 1.223052-11.007465 6.115258-9.784413 12.230516s6.115258 11.007465 12.230516 9.784413l43.876979-3.669155c6.115258-1.223052 11.007465-6.115258 9.784413-12.230516s-6.115258-11.007465-12.230517-9.784413zM673.5957 426.080621c1.223052 1.223052 3.669155 2.446103 3.669155 3.669155 13.453568 11.007465 41.430875 33.022395 76.899373 33.022395 5.350851 0.152881 9.631532-4.127799 9.784413-9.478651v-0.305762c0-6.115258-3.669155-9.784413-8.561361-9.784414-30.576291 0-54.884443-20.791878-67.11496-30.576291-3.669155-2.446103-3.669155-3.669155-6.115258-3.669155-4.127799-2.446103-9.47865-1.07017-11.924754 3.057629-0.152881 0.152881-0.152881 0.305763-0.305763 0.611526-3.669155 3.669155-1.223052 9.784413 3.669155 13.453568zM800.48731 461.549119c35.315617 0 63.445805-23.237981 76.899373-33.022395 1.834577-1.07017 3.363392-2.293222 4.892206-3.669155 4.280681-3.057629 5.809495-8.714243 3.669155-13.453568-2.598985-4.127799-7.796954-5.809495-12.230516-3.669155-1.834577 1.528815-3.974918 2.751866-6.115259 3.669155-13.453568 9.784413-37.76172 30.576291-67.114959 30.576292-3.669155 0-8.561362 3.669155-8.561362 9.784413s3.822036 9.784413 8.561362 9.784413zM995.869812 487.080322h-135.452971c-6.115258 0-11.007465 6.115258-11.007465 14.67662 0 7.33831 3.669155 14.67662 11.007465 14.67662H883.654822c-3.669155 19.568827-3.669155 49.992236 6.115259 80.568528 0 0 13.453568 37.76172 0 74.45327 0 0-18.345775 43.876978 3.669155 72.007166 0 0 30.576291-19.568827 72.007166-9.784413 0 0-8.561362-35.315617 3.669155-64.668857 0 0 18.345775-36.538668 0-91.575992 0 0-8.561362-30.576291 3.669155-58.553598h24.461033c6.115258 0 11.007465-6.115258 11.007465-14.67662-1.528815-9.784413-7.644073-17.122723-12.383398-17.122724z m-37.914601 181.928934c-7.33831 14.67662-6.115258 36.538668-3.669155 49.992237-1.223052 0-1.223052 0-2.446104-1.223052H949.393849c-2.751866-0.917289-5.656614-1.375933-8.561362-1.223051h-2.446103c-4.127799-0.152881-8.255599 0.305763-12.230517 1.223051h-2.446103c-9.172887 1.528815-18.192893 3.974918-26.907136 7.33831-1.223052 0-1.223052 1.223052-2.446104 1.223052-3.669155-7.33831-11.007465-23.237981-1.223051-51.215288 15.899672-46.323082 8.561362-68.338011 3.669155-86.683786l-1.223052-2.446104c-8.255599-24.002389-9.631532-49.839355-3.669155-74.453269h69.561063c-3.669155 20.791878-7.33831 45.10003-3.669155 58.553598 11.160346 36.69155 12.383398 76.899373 0.152882 98.914302zM701.725888 488.303374h-134.229919c-6.115258 0-11.007465 6.115258-11.007465 14.67662 0 7.33831 3.669155 14.67662 11.007465 14.67662H593.180054c11.007465 29.35324 3.669155 58.553598 3.669155 58.553598-18.345775 54.884443 0 91.575993 0 91.575993 11.007465 30.576291 3.669155 64.668856 3.669155 64.668856 41.430875-9.784413 72.007166 9.784413 72.007166 9.784413 20.791878-28.130188 3.669155-72.007166 3.669155-72.007166-13.453568-35.315617 0-74.45327 0-74.453269 11.007465-30.576291 8.561362-62.222753 6.115258-80.568528h23.237982c4.892207 1.223052 9.784413-4.892207 9.784413-13.453569-2.598985-7.33831-8.714243-13.453568-13.60645-13.453568z m-36.691549 100.137355l-1.223052 2.446103c-6.115258 18.345775-13.453568 40.207823 3.669155 86.683786 9.784413 28.130188 3.669155 45.10003-1.223052 51.215288-1.223052 0-1.223052-1.223052-2.446103-1.223051-8.714243-3.363392-17.734249-5.809495-26.907137-7.33831h-2.293221c-3.669155-1.223052-7.33831-1.223052-12.230517-1.223052h-3.669155c-3.669155 0-6.115258 0-8.561362 1.223052h-2.446103c-1.223052 0-1.223052 0-2.446103 1.223051 3.669155-14.67662 3.669155-36.538668-3.669155-49.992236-12.230517-23.237981-11.007465-64.668856 0-98.914303 3.669155-13.453568 0-37.76172-3.669155-53.661391h69.561063c6.115258 11.007465 8.561362 37.76172-2.446103 69.561063zM839.624963 655.555688l-54.884443-29.35324c-1.834577-1.223052-4.280681-1.223052-6.115259 0l-47.546133 30.576292c-4.280681 3.057629-5.809495 8.714243-3.669155 13.453568 2.446103 3.669155 6.115258 7.33831 11.007465 3.669155l45.10003-28.130188 49.992236 28.130188c0.917289 0.917289 2.293222 1.375933 3.669155 1.223052 3.669155 0 6.115258-2.446103 7.33831-6.115259 1.223052-6.115258-1.223052-11.007465-4.892206-13.453568z" fill="#B2B2B2" p-id="13968"></path></svg>