<?xml version="1.0" standalone="no"?><!DOCTYPE svg PUBLIC "-//W3C//DTD SVG 1.1//EN" "http://www.w3.org/Graphics/SVG/1.1/DTD/svg11.dtd"><svg t="1539329771925" class="icon" style="" viewBox="0 0 1024 1024" version="1.1" xmlns="http://www.w3.org/2000/svg" p-id="2926" xmlns:xlink="http://www.w3.org/1999/xlink" width="200" height="200"><defs><style type="text/css"></style></defs><path d="M962 446L596 68C572 44 542 32 512 32 482 32 452 44 428 68L62 446C26 488 32 518 38 536 38 542 56 572 98 572L152 572l0 294C152 932 200 992 266 992l60 0 96 0 0-66 0-240C422 650 416 632 452 632l60 0 60 0c36 0 30 18 30 54l0 240L602 992l96 0 60 0c66 0 114-60 114-126L872 572l54 0c42 0 60-30 60-36C992 518 998 488 962 446zM926 512l-48 0-30 0L812 512l0 354c0 36-24 66-54 66l-96 0 0-246C662 620 638 572 572 572L512 572 452 572c-66 0-90 48-90 114L362 932 266 932C236 932 212 896 212 866L212 512 176 512 146 512 98 512c0 0 0-6 0-6 0-6 6-12 12-18l366-378C482 98 500 92 512 92c12 0 30 6 42 18l366 378C920 494 926 506 926 512 926 506 926 512 926 512z" p-id="2927"></path></svg>