<?xml version="1.0" standalone="no"?><!DOCTYPE svg PUBLIC "-//W3C//DTD SVG 1.1//EN" "http://www.w3.org/Graphics/SVG/1.1/DTD/svg11.dtd"><svg t="1539329781764" class="icon" style="" viewBox="0 0 1024 1024" version="1.1" xmlns="http://www.w3.org/2000/svg" p-id="3042" xmlns:xlink="http://www.w3.org/1999/xlink" width="200" height="200"><defs><style type="text/css"></style></defs><path d="M634.65472 581.91872c92.89728-45.48608 157.02016-140.65664 157.02016-251.04384C791.67488 176.41472 666.46016 51.2 512 51.2c-154.46016 0-279.67488 125.21472-279.67488 279.67488 0 110.3872 64.12288 205.57824 157.02016 251.04384-154.15296 49.37728-270.25408 188.7232-282.46016 357.56032-1.2288 17.12128 11.63264 31.98976 28.75392 33.23904 17.24416 1.20832 31.98976-11.65312 33.23904-28.75392C181.80096 764.90752 332.53376 624.64 512 624.64s330.19904 140.26752 343.1424 319.32416c1.18784 16.36352 14.82752 28.83584 30.96576 28.83584 0.75776 0 1.51552-0.02048 2.27328-0.08192 17.12128-1.2288 29.98272-16.11776 28.75392-33.23904C904.92928 770.64192 788.82816 631.296 634.65472 581.91872zM294.48192 330.87488c0-120.13568 97.3824-217.51808 217.51808-217.51808 120.13568 0 217.51808 97.3824 217.51808 217.51808S632.13568 548.39296 512 548.39296C391.86432 548.39296 294.48192 451.01056 294.48192 330.87488z" p-id="3043"></path></svg>